{"asset":{"version":"2.0","generator":"THREE.GLTFExporter"},"scenes":[{"name":"default","nodes":[0]}],"scene":0,"nodes":[{"name":"default","mesh":0}],"bufferViews":[{"buffer":0,"byteOffset":0,"byteLength":27432,"target":34962,"byteStride":12},{"buffer":0,"byteOffset":27432,"byteLength":27432,"target":34962,"byteStride":12},{"buffer":0,"byteOffset":54864,"byteLength":18288,"target":34962,"byteStride":8},{"buffer":0,"byteOffset":73152,"byteLength":2904,"target":34963},{"buffer":0,"byteOffset":76056,"byteLength":336,"target":34963},{"buffer":0,"byteOffset":76392,"byteLength":96,"target":34963},{"buffer":0,"byteOffset":76488,"byteLength":1236,"target":34963}],"buffers":[{"byteLength":77724,"uri":"data:application/octet-stream;base64,"}],"accessors":[{"bufferView":0,"componentType":5126,"count":2286,"max":[8,2,7],"min":[-7,-3,-8],"type":"VEC3"},{"bufferView":1,"componentType":5126,"count":2286,"max":[1,1,1],"min":[-1,0,-1],"type":"VEC3"},{"bufferView":2,"componentType":5126,"count":2286,"max":[0.875,1],"min":[0.625,0.625],"type":"VEC2"},{"bufferView":3,"componentType":5123,"count":1452,"max":[1451],"min":[0],"type":"SCALAR"},{"bufferView":4,"componentType":5123,"count":168,"max":[1619],"min":[1452],"type":"SCALAR"},{"bufferView":5,"componentType":5123,"count":48,"max":[1667],"min":[1620],"type":"SCALAR"},{"bufferView":6,"componentType":5123,"count":618,"max":[2285],"min":[1668],"type":"SCALAR"}],"materials":[{"pbrMetallicRoughness":{"metallicFactor":0,"roughnessFactor":1,"baseColorTexture":{"index":0}},"alphaMode":"MASK","alphaCutoff":0.01,"name":"nest_crossroads_texture_1_1"},{"pbrMetallicRoughness":{"metallicFactor":0,"roughnessFactor":1,"baseColorTexture":{"index":1}},"alphaMode":"MASK","alphaCutoff":0.01,"name":"nest_crossroads_texture_1_5"},{"pbrMetallicRoughness":{"metallicFactor":0,"roughnessFactor":1,"baseColorTexture":{"index":2}},"alphaMode":"MASK","alphaCutoff":0.01,"name":"nest_crossroads_texture_1_6"},{"pbrMetallicRoughness":{"metallicFactor":0,"roughnessFactor":1,"baseColorTexture":{"index":3}},"alphaMode":"MASK","alphaCutoff":0.01,"name":"nest_crossroads_texture_1_7"}],"textures":[{"sampler":0,"source":0,"name":"nest_crossroads_texture_1_1"},{"sampler":1,"source":1,"name":"nest_crossroads_texture_1_5"},{"sampler":2,"source":2,"name":"nest_crossroads_texture_1_6"},{"sampler":3,"source":3,"name":"nest_crossroads_texture_1_7"}],"samplers":[{"magFilter":9728,"minFilter":9728,"wrapS":33071,"wrapT":33071},{"magFilter":9728,"minFilter":9728,"wrapS":33071,"wrapT":33071},{"magFilter":9728,"minFilter":9728,"wrapS":33071,"wrapT":33071},{"magFilter":9728,"minFilter":9728,"wrapS":33071,"wrapT":33071}],"images":[{"mimeType":"image/png","uri":"data:image/png;base64,"},{"mimeType":"image/png","uri":"data:image/png;base64,"},{"mimeType":"image/png","uri":"data:image/png;base64,"},{"mimeType":"image/png","uri":"data:image/png;base64,"}],"meshes":[{"primitives":[{"mode":4,"attributes":{"POSITION":0,"NORMAL":1,"TEXCOORD_0":2},"indices":3,"material":0},{"mode":4,"attributes":{"POSITION":0,"NORMAL":1,"TEXCOORD_0":2},"indices":4,"material":1},{"mode":4,"attributes":{"POSITION":0,"NORMAL":1,"TEXCOORD_0":2},"indices":5,"material":2},{"mode":4,"attributes":{"POSITION":0,"NORMAL":1,"TEXCOORD_0":2},"indices":6,"material":3}]}]}