{"asset":{"version":"2.0","generator":"THREE.GLTFExporter"},"scenes":[{"name":"default","nodes":[0]}],"scene":0,"nodes":[{"name":"default","mesh":0}],"bufferViews":[{"buffer":0,"byteOffset":0,"byteLength":4200,"target":34962,"byteStride":12},{"buffer":0,"byteOffset":4200,"byteLength":4200,"target":34962,"byteStride":12},{"buffer":0,"byteOffset":8400,"byteLength":2800,"target":34962,"byteStride":8},{"buffer":0,"byteOffset":11200,"byteLength":552,"target":34963},{"buffer":0,"byteOffset":11752,"byteLength":312,"target":34963},{"buffer":0,"byteOffset":12064,"byteLength":216,"target":34963},{"buffer":0,"byteOffset":12280,"byteLength":72,"target":34963},{"buffer":0,"byteOffset":12352,"byteLength":264,"target":34963},{"buffer":0,"byteOffset":12616,"byteLength":72,"target":34963}],"buffers":[{"byteLength":12688,"uri":"data:application/octet-stream;base64,"}],"accessors":[{"bufferView":0,"componentType":5126,"count":350,"max":[6,3,4],"min":[-1,-1,-2],"type":"VEC3"},{"bufferView":1,"componentType":5126,"count":350,"max":[1,1,1],"min":[-1,0,-1],"type":"VEC3"},{"bufferView":2,"componentType":5126,"count":350,"max":[1,1],"min":[0,0],"type":"VEC2"},{"bufferView":3,"componentType":5123,"count":276,"max":[153],"min":[0],"type":"SCALAR"},{"bufferView":4,"componentType":5123,"count":156,"max":[217],"min":[96],"type":"SCALAR"},{"bufferView":5,"componentType":5123,"count":108,"max":[261],"min":[218],"type":"SCALAR"},{"bufferView":6,"componentType":5123,"count":36,"max":[269],"min":[227],"type":"SCALAR"},{"bufferView":7,"componentType":5123,"count":132,"max":[325],"min":[270],"type":"SCALAR"},{"bufferView":8,"componentType":5123,"count":36,"max":[349],"min":[326],"type":"SCALAR"}],"materials":[{"pbrMetallicRoughness":{"metallicFactor":0,"roughnessFactor":1,"baseColorTexture":{"index":0}},"alphaMode":"MASK","alphaCutoff":0.01,"name":"tx_venns_room_1"},{"pbrMetallicRoughness":{"metallicFactor":0,"roughnessFactor":1,"baseColorTexture":{"index":1}},"alphaMode":"MASK","alphaCutoff":0.01,"name":"tx_venns_room_2"},{"pbrMetallicRoughness":{"metallicFactor":0,"roughnessFactor":1,"baseColorTexture":{"index":2}},"alphaMode":"MASK","alphaCutoff":0.01,"name":"tx_venns_room_3"},{"pbrMetallicRoughness":{"metallicFactor":0,"roughnessFactor":1,"baseColorTexture":{"index":3}},"alphaMode":"MASK","alphaCutoff":0.01,"name":"tx_venns_room_4"},{"pbrMetallicRoughness":{"metallicFactor":0,"roughnessFactor":1,"baseColorTexture":{"index":4}},"alphaMode":"MASK","alphaCutoff":0.01,"name":"tx_venns_room_5"},{"pbrMetallicRoughness":{"metallicFactor":0,"roughnessFactor":1,"baseColorTexture":{"index":5}},"alphaMode":"MASK","alphaCutoff":0.01,"name":"tx_venns_room_9"}],"textures":[{"sampler":0,"source":0,"name":"tx_venns_room_1"},{"sampler":1,"source":1,"name":"tx_venns_room_2"},{"sampler":2,"source":2,"name":"tx_venns_room_3"},{"sampler":3,"source":3,"name":"tx_venns_room_4"},{"sampler":4,"source":4,"name":"tx_venns_room_5"},{"sampler":5,"source":5,"name":"tx_venns_room_9"}],"samplers":[{"magFilter":9728,"minFilter":9728,"wrapS":33071,"wrapT":33071},{"magFilter":9728,"minFilter":9728,"wrapS":33071,"wrapT":33071},{"magFilter":9728,"minFilter":9728,"wrapS":33071,"wrapT":33071},{"magFilter":9728,"minFilter":9728,"wrapS":33071,"wrapT":33071},{"magFilter":9728,"minFilter":9728,"wrapS":33071,"wrapT":33071},{"magFilter":9728,"minFilter":9728,"wrapS":33071,"wrapT":33071}],"images":[{"mimeType":"image/png","uri":"data:image/png;base64,"},{"mimeType":"image/png","uri":"data:image/png;base64,"},{"mimeType":"image/png","uri":"data:image/png;base64,"},{"mimeType":"image/png","uri":"data:image/png;base64,"},{"mimeType":"image/png","uri":"data:image/png;base64,"},{"mimeType":"image/png","uri":"data:image/png;base64,"}],"meshes":[{"primitives":[{"mode":4,"attributes":{"POSITION":0,"NORMAL":1,"TEXCOORD_0":2},"indices":3,"material":0},{"mode":4,"attributes":{"POSITION":0,"NORMAL":1,"TEXCOORD_0":2},"indices":4,"material":1},{"mode":4,"attributes":{"POSITION":0,"NORMAL":1,"TEXCOORD_0":2},"indices":5,"material":2},{"mode":4,"attributes":{"POSITION":0,"NORMAL":1,"TEXCOORD_0":2},"indices":6,"material":3},{"mode":4,"attributes":{"POSITION":0,"NORMAL":1,"TEXCOORD_0":2},"indices":7,"material":4},{"mode":4,"attributes":{"POSITION":0,"NORMAL":1,"TEXCOORD_0":2},"indices":8,"material":5}]}]}