{"asset":{"version":"2.0","generator":"THREE.GLTFExporter"},"scenes":[{"name":"default","nodes":[0,1]}],"scene":0,"nodes":[{"name":"default","mesh":0},{"matrix":[1,0,0,0,0,1,0,0,0,0,1,0,4,0,2,1],"name":"obj_venns_bed","extras":{"data":{"name":"obj_venns_bed","points":[{"name":"Origin","pos":{"x":0,"y":0,"z":0}}],"billboard":{"enabled":false,"y":false},"directional":{"enabled":false,"mode":"cameraAngle","angles":[]},"custom":[],"instance":{"name":"obj_venns_bed","uuid":"1AD4C402-9104-42E3-B23A-36F51E11EB40","parent":null,"pos":{"x":4,"y":0,"z":2},"rot":{"x":0,"y":0,"z":0,"order":"XYZ"},"sca":{"x":1,"y":1,"z":1},"custom":[]}}},"mesh":1}],"bufferViews":[{"buffer":0,"byteOffset":0,"byteLength":4200,"target":34962,"byteStride":12},{"buffer":0,"byteOffset":4200,"byteLength":4200,"target":34962,"byteStride":12},{"buffer":0,"byteOffset":8400,"byteLength":2800,"target":34962,"byteStride":8},{"buffer":0,"byteOffset":11200,"byteLength":552,"target":34963},{"buffer":0,"byteOffset":11752,"byteLength":312,"target":34963},{"buffer":0,"byteOffset":12064,"byteLength":216,"target":34963},{"buffer":0,"byteOffset":12280,"byteLength":72,"target":34963},{"buffer":0,"byteOffset":12352,"byteLength":264,"target":34963},{"buffer":0,"byteOffset":12616,"byteLength":72,"target":34963},{"buffer":0,"byteOffset":12688,"byteLength":780,"target":34962,"byteStride":12},{"buffer":0,"byteOffset":13468,"byteLength":780,"target":34962,"byteStride":12},{"buffer":0,"byteOffset":14248,"byteLength":520,"target":34962,"byteStride":8},{"buffer":0,"byteOffset":14768,"byteLength":120,"target":34963},{"buffer":0,"byteOffset":14888,"byteLength":120,"target":34963},{"buffer":0,"byteOffset":15008,"byteLength":24,"target":34963},{"buffer":0,"byteOffset":15032,"byteLength":72,"target":34963}],"buffers":[{"byteLength":15104,"uri":"data:application/octet-stream;base64,"}],"accessors":[{"bufferView":0,"componentType":5126,"count":350,"max":[6,3,4],"min":[-1,-1,-2],"type":"VEC3"},{"bufferView":1,"componentType":5126,"count":350,"max":[1,1,1],"min":[-1,0,-1],"type":"VEC3"},{"bufferView":2,"componentType":5126,"count":350,"max":[1,1],"min":[0,0],"type":"VEC2"},{"bufferView":3,"componentType":5123,"count":276,"max":[153],"min":[0],"type":"SCALAR"},{"bufferView":4,"componentType":5123,"count":156,"max":[217],"min":[96],"type":"SCALAR"},{"bufferView":5,"componentType":5123,"count":108,"max":[261],"min":[218],"type":"SCALAR"},{"bufferView":6,"componentType":5123,"count":36,"max":[269],"min":[227],"type":"SCALAR"},{"bufferView":7,"componentType":5123,"count":132,"max":[325],"min":[270],"type":"SCALAR"},{"bufferView":8,"componentType":5123,"count":36,"max":[349],"min":[326],"type":"SCALAR"},{"bufferView":9,"componentType":5126,"count":65,"max":[3,2,1],"min":[-1,0,-2],"type":"VEC3"},{"bufferView":10,"componentType":5126,"count":65,"max":[1,1,1],"min":[-1,0,-1],"type":"VEC3"},{"bufferView":11,"componentType":5126,"count":65,"max":[1,0.8125],"min":[0.5625,0.4375],"type":"VEC2"},{"bufferView":12,"componentType":5123,"count":60,"max":[25],"min":[0],"type":"SCALAR"},{"bufferView":13,"componentType":5123,"count":60,"max":[42],"min":[11],"type":"SCALAR"},{"bufferView":14,"componentType":5123,"count":12,"max":[48],"min":[43],"type":"SCALAR"},{"bufferView":15,"componentType":5123,"count":36,"max":[64],"min":[49],"type":"SCALAR"}],"materials":[{"pbrMetallicRoughness":{"metallicFactor":0,"roughnessFactor":1,"baseColorTexture":{"index":0}},"alphaMode":"MASK","alphaCutoff":0.01,"name":"tx_venns_room_1"},{"pbrMetallicRoughness":{"metallicFactor":0,"roughnessFactor":1,"baseColorTexture":{"index":1}},"alphaMode":"MASK","alphaCutoff":0.01,"name":"tx_venns_room_2"},{"pbrMetallicRoughness":{"metallicFactor":0,"roughnessFactor":1,"baseColorTexture":{"index":2}},"alphaMode":"MASK","alphaCutoff":0.01,"name":"tx_venns_room_3"},{"pbrMetallicRoughness":{"metallicFactor":0,"roughnessFactor":1,"baseColorTexture":{"index":3}},"alphaMode":"MASK","alphaCutoff":0.01,"name":"tx_venns_room_4"},{"pbrMetallicRoughness":{"metallicFactor":0,"roughnessFactor":1,"baseColorTexture":{"index":4}},"alphaMode":"MASK","alphaCutoff":0.01,"name":"tx_venns_room_5"},{"pbrMetallicRoughness":{"metallicFactor":0,"roughnessFactor":1,"baseColorTexture":{"index":5}},"alphaMode":"MASK","alphaCutoff":0.01,"name":"tx_venns_room_9"},{"pbrMetallicRoughness":{"metallicFactor":0,"roughnessFactor":1,"baseColorTexture":{"index":6}},"alphaMode":"MASK","alphaCutoff":0.01,"name":"tx_venns_room_13"},{"pbrMetallicRoughness":{"metallicFactor":0,"roughnessFactor":1,"baseColorTexture":{"index":7}},"alphaMode":"MASK","alphaCutoff":0.01,"name":"tx_venns_room_12"},{"pbrMetallicRoughness":{"metallicFactor":0,"roughnessFactor":1,"baseColorTexture":{"index":8}},"alphaMode":"MASK","alphaCutoff":0.01,"name":"tx_venns_room_11"},{"pbrMetallicRoughness":{"metallicFactor":0,"roughnessFactor":1,"baseColorTexture":{"index":9}},"alphaMode":"MASK","alphaCutoff":0.01,"name":"tx_venns_room_10"}],"textures":[{"sampler":0,"source":0,"name":"tx_venns_room_1"},{"sampler":1,"source":1,"name":"tx_venns_room_2"},{"sampler":2,"source":2,"name":"tx_venns_room_3"},{"sampler":3,"source":3,"name":"tx_venns_room_4"},{"sampler":4,"source":4,"name":"tx_venns_room_5"},{"sampler":5,"source":5,"name":"tx_venns_room_9"},{"sampler":6,"source":6,"name":"tx_venns_room_13"},{"sampler":7,"source":7,"name":"tx_venns_room_12"},{"sampler":8,"source":8,"name":"tx_venns_room_11"},{"sampler":9,"source":9,"name":"tx_venns_room_10"}],"samplers":[{"magFilter":9728,"minFilter":9728,"wrapS":33071,"wrapT":33071},{"magFilter":9728,"minFilter":9728,"wrapS":33071,"wrapT":33071},{"magFilter":9728,"minFilter":9728,"wrapS":33071,"wrapT":33071},{"magFilter":9728,"minFilter":9728,"wrapS":33071,"wrapT":33071},{"magFilter":9728,"minFilter":9728,"wrapS":33071,"wrapT":33071},{"magFilter":9728,"minFilter":9728,"wrapS":33071,"wrapT":33071},{"magFilter":9728,"minFilter":9728,"wrapS":33071,"wrapT":33071},{"magFilter":9728,"minFilter":9728,"wrapS":33071,"wrapT":33071},{"magFilter":9728,"minFilter":9728,"wrapS":33071,"wrapT":33071},{"magFilter":9728,"minFilter":9728,"wrapS":33071,"wrapT":33071}],"images":[{"mimeType":"image/png","uri":"data:image/png;base64,"},{"mimeType":"image/png","uri":"data:image/png;base64,"},{"mimeType":"image/png","uri":"data:image/png;base64,"},{"mimeType":"image/png","uri":"data:image/png;base64,"},{"mimeType":"image/png","uri":"data:image/png;base64,"},{"mimeType":"image/png","uri":"data:image/png;base64,"},{"mimeType":"image/png","uri":"data:image/png;base64,"},{"mimeType":"image/png","uri":"data:image/png;base64,"},{"mimeType":"image/png","uri":"data:image/png;base64,"},{"mimeType":"image/png","uri":"data:image/png;base64,"}],"meshes":[{"primitives":[{"mode":4,"attributes":{"POSITION":0,"NORMAL":1,"TEXCOORD_0":2},"indices":3,"material":0},{"mode":4,"attributes":{"POSITION":0,"NORMAL":1,"TEXCOORD_0":2},"indices":4,"material":1},{"mode":4,"attributes":{"POSITION":0,"NORMAL":1,"TEXCOORD_0":2},"indices":5,"material":2},{"mode":4,"attributes":{"POSITION":0,"NORMAL":1,"TEXCOORD_0":2},"indices":6,"material":3},{"mode":4,"attributes":{"POSITION":0,"NORMAL":1,"TEXCOORD_0":2},"indices":7,"material":4},{"mode":4,"attributes":{"POSITION":0,"NORMAL":1,"TEXCOORD_0":2},"indices":8,"material":5}]},{"primitives":[{"mode":4,"attributes":{"POSITION":9,"NORMAL":10,"TEXCOORD_0":11},"indices":12,"material":6},{"mode":4,"attributes":{"POSITION":9,"NORMAL":10,"TEXCOORD_0":11},"indices":13,"material":7},{"mode":4,"attributes":{"POSITION":9,"NORMAL":10,"TEXCOORD_0":11},"indices":14,"material":8},{"mode":4,"attributes":{"POSITION":9,"NORMAL":10,"TEXCOORD_0":11},"indices":15,"material":9}]}]}